<svg xmlns="http://www.w3.org/2000/svg" viewBox="0 0 18.909 18.909" width="512" height="512">
    <path d="M10.193 8.311L1.887 1.714a1.312 1.312 0 0 0-1.268.052A1.272 1.272 0 0 0 0 2.856v13.198c0 .443.233.856.619 1.089a1.316 1.316 0 0 0 
    1.269.052l8.306-6.599c.4-.376.716-.658.716-1.143s-.269-.746-.717-1.142z" fill="#84878A" />
    <path d="M18.193 8.311L9.887 1.714a1.314 1.314 0 0 0-1.269.052 1.272 1.272 0 0 0-.619 1.09v13.198c0 .443.233.856.619 1.089a1.316 1.316 0 0 0 
    1.269.052l8.306-6.599c.4-.376.716-.658.716-1.143s-.268-.746-.716-1.142z" fill="#84878A" />
</svg>